<svg xmlns="http://www.w3.org/2000/svg" viewBox="0 0 434 434" width="32" height="32">
	<path fill="#fff" fill-rule="evenodd" d="M1 216.96C1 97.69 97.69 1 216.96 1C336.23 1 432.92 97.69 432.92 216.96C432.92 336.23 336.23 432.92 216.96 432.92C97.69 432.92 1 336.23 1 216.96ZM216.95 307.03L216.97 307.03C225.14 306.98 232.87 306.98 236.76 306.98C245.36 306.98 266.9 306.66 286.31 295.94C296.03 290.57 305.22 282.59 311.98 270.74C318.73 258.9 323.02 243.25 323.03 222.59C323.03 203.71 316.62 189.77 306.1 178.16C306.26 177.6 306.39 176.9 306.5 176.11C306.65 174.98 306.76 173.59 306.81 171.99C306.92 168.78 306.8 164.68 306.35 160C305.45 150.65 303.2 138.95 298.66 127.5L298.38 126.79L297.62 126.88L297.73 127.87C297.62 126.88 297.62 126.88 297.62 126.88L297.62 126.88L297.62 126.88L297.6 126.88L297.55 126.89C297.5 126.89 297.44 126.9 297.36 126.91C297.19 126.93 296.94 126.97 296.62 127.02C295.97 127.13 295.02 127.31 293.79 127.58C291.32 128.14 287.72 129.11 283.13 130.75C274.04 134 261.1 139.91 245.54 150.54C238.79 148.77 227.84 147.89 216.96 147.89C206.09 147.89 195.11 148.77 188.4 150.56C172.84 139.93 159.9 134.02 150.81 130.77C146.23 129.13 142.62 128.16 140.15 127.61C138.92 127.33 137.97 127.15 137.32 127.05C137 126.99 136.75 126.96 136.59 126.93C136.5 126.92 136.44 126.91 136.39 126.91L136.34 126.9L136.33 126.9L136.32 126.9L136.32 126.9C136.32 126.9 136.32 126.9 136.21 127.89L136.32 126.9L135.56 126.82L135.28 127.53C130.74 138.98 128.5 150.66 127.6 160.01C127.15 164.69 127.03 168.79 127.14 172C127.19 173.6 127.3 174.99 127.45 176.12C127.55 176.92 127.69 177.62 127.84 178.19C117.33 189.79 110.92 203.73 110.92 222.61C110.92 243.26 115.2 258.9 121.95 270.74C128.7 282.58 137.89 290.56 147.61 295.94C167.02 306.66 188.56 306.98 197.16 306.98C201.05 306.98 208.78 306.98 216.95 307.03ZM335.52 347.13C343.47 339.21 332.94 328.71 325.52 336.28C211.3 449.81 10.13 336.15 65.45 162.96C106.37 49.78 249.58 20.5 330.29 104.56C326.57 112.06 328.06 121.87 335.51 127.52C346.57 135.9 362.53 128.88 364.17 114.92C365.7 101.89 353.69 91.85 341.75 95.12C253.87 2.27 96.73 34.01 51.93 157.91C-8.66 323.43 189.6 478.43 335.52 347.13Z" />
</svg>