<svg width="427" height="374" viewBox="0 0 427 374" fill="none" xmlns="http://www.w3.org/2000/svg">
<path d="M334.333 332.067C334.333 355.289 280.786 374 214.767 374C148.747 374 95.2 355.122 95.2 332.067C95.2 308.845 148.747 290.133 214.767 290.133C280.786 290.133 334.333 308.845 334.333 332.067Z" fill="#9EDCF2"/>
<path d="M334.333 332.067C334.333 355.289 280.786 374 214.767 374C148.747 374 95.2 355.122 95.2 332.067C95.2 308.845 148.747 290.133 214.767 290.133C280.786 290.133 334.333 308.845 334.333 332.067Z" fill="#7DBCE7"/>
<path d="M78.2291 208.533L74.8692 221.209C74.8692 221.209 74.0692 225.786 77.9091 226.667C82.0689 226.491 81.749 222.265 81.429 221.033L78.2291 208.533Z" fill="#9EDCF2"/>
<path d="M425.8 158.774L426.133 157.278C391.011 150.301 355.056 150.135 333.25 151.131C336.745 138.339 337.91 123.387 337.91 106.939C337.91 83.1817 328.922 64.2421 314.606 49.9544C317.103 41.8138 320.432 23.7049 311.277 0.611987C311.277 0.611987 294.964 -4.53823 257.844 20.2161C243.362 16.5611 227.881 14.7336 212.401 14.7336C195.422 14.7336 178.277 16.8933 162.13 21.2129C123.845 -4.87051 107.033 0.445851 107.033 0.445851C96.0465 27.8583 102.871 48.2931 104.869 53.2771C91.885 67.2326 84.0615 85.0092 84.0615 106.773C84.0615 123.22 85.8925 138.007 90.5533 150.799C68.5808 149.968 33.9575 150.301 0 157.112L0.332917 158.607C34.2904 151.796 69.2467 151.63 91.0527 152.46C92.0515 155.119 93.2167 157.777 94.3819 160.269C72.7423 160.933 35.955 163.758 0.665833 173.726L1.16521 175.221C36.7873 165.253 73.9075 162.595 95.3806 161.93C108.364 185.854 133.666 201.471 178.943 206.289C172.451 210.608 165.959 217.918 163.296 230.378C154.473 234.532 126.841 244.832 110.195 216.257C110.195 216.257 100.874 199.311 83.0627 197.982C83.0627 197.982 65.751 197.649 81.8975 208.781C81.8975 208.781 93.3831 214.263 101.373 234.698C101.373 234.698 111.86 269.586 161.964 258.289V294.008C161.964 294.008 160.965 306.801 149.147 310.954C149.147 310.954 142.155 315.772 149.646 318.43C149.646 318.43 182.105 321.089 182.105 294.507V255.299C182.105 255.299 180.774 239.682 188.431 234.366V298.826C188.431 298.826 187.931 314.277 179.941 320.092C179.941 320.092 174.615 329.562 186.267 327.07C186.267 327.07 208.572 323.913 209.571 297.83L210.07 232.538H215.397L215.896 297.83C216.895 323.747 239.201 327.07 239.201 327.07C250.853 329.728 245.526 320.092 245.526 320.092C237.536 314.277 237.037 298.826 237.037 298.826V234.864C244.694 240.845 243.362 255.299 243.362 255.299V294.507C243.362 321.089 275.821 318.43 275.821 318.43C283.312 315.772 276.321 310.954 276.321 310.954C264.669 306.635 263.504 294.008 263.504 294.008V242.506C263.504 222.404 255.014 211.771 246.691 206.289C294.964 201.471 318.102 186.02 328.755 161.764C349.895 162.262 388.014 164.921 424.302 175.221L424.802 173.726C388.68 163.592 350.894 160.933 329.421 160.269C330.42 157.777 331.252 155.285 332.084 152.627C354.39 151.796 390.511 151.796 425.8 158.774Z" fill="#010101"/>
<path d="M290.656 105.761C300.975 115.221 307.133 126.505 307.133 138.62C307.133 195.706 264.526 197.2 211.933 197.2C159.34 197.2 116.733 189.234 116.733 138.62C116.733 126.505 122.725 115.22 133.044 105.927C150.186 90.3279 179.146 98.6255 211.933 98.6255C244.721 98.6255 273.514 90.162 290.656 105.761Z" fill="#F5CCB3"/>
<path d="M180.2 141.667C180.2 157.408 171.367 170 160.367 170C149.367 170 140.533 157.242 140.533 141.667C140.533 125.927 149.367 113.335 160.367 113.335C171.367 113.169 180.2 125.927 180.2 141.667Z" fill="white"/>
<path d="M173.4 141.667C173.4 152.314 167.461 160.933 160.367 160.933C153.108 160.933 147.333 152.314 147.333 141.667C147.333 131.019 153.273 122.4 160.367 122.4C167.461 122.4 173.4 131.019 173.4 141.667Z" fill="#AF5C51"/>
<path d="M286.733 141.667C286.733 157.408 277.9 170 266.9 170C255.9 170 247.067 157.242 247.067 141.667C247.067 125.927 255.9 113.335 266.9 113.335C277.733 113.169 286.733 125.927 286.733 141.667Z" fill="white"/>
<path d="M279.933 141.667C279.933 152.314 273.994 160.933 266.9 160.933C259.641 160.933 253.867 152.314 253.867 141.667C253.867 131.019 259.806 122.4 266.9 122.4C274.159 122.4 279.933 131.019 279.933 141.667Z" fill="#AF5C51"/>
<path d="M217.6 167.167C217.6 169.887 215.39 172.267 212.5 172.267C209.78 172.267 207.4 170.057 207.4 167.167C207.4 164.277 209.61 162.067 212.5 162.067C215.22 162.067 217.6 164.277 217.6 167.167Z" fill="#AF5C51"/>
<path d="M200.702 178.89C200.376 178.062 200.865 177.235 201.679 176.904C202.492 176.573 203.306 177.069 203.632 177.897C204.934 181.538 208.19 183.855 211.933 183.855C215.677 183.855 218.933 181.373 220.235 177.897C220.56 177.069 221.374 176.573 222.188 176.904C223.002 177.235 223.49 178.062 223.165 178.89C221.537 183.69 216.979 187 211.933 187C206.887 187 202.33 183.69 200.702 178.89Z" fill="#AF5C51"/>
<path d="M90.6667 201.733C90.6667 203.029 89.2095 204 87.2667 204C85.4857 204 83.8667 203.029 83.8667 201.733C83.8667 200.438 85.3238 199.467 87.2667 199.467C89.2095 199.467 90.6667 200.438 90.6667 201.733Z" fill="#C4E5D9"/>
<path d="M100.867 207.4C100.867 208.695 99.1667 209.667 96.9 209.667C94.8222 209.667 92.9333 208.695 92.9333 207.4C92.9333 206.105 94.6333 205.133 96.9 205.133C99.1667 205.133 100.867 206.105 100.867 207.4Z" fill="#C4E5D9"/>
<path d="M106.533 214.208C106.533 215.499 105.076 216.467 103.133 216.467C101.352 216.467 99.7333 215.499 99.7333 214.208C99.7333 212.917 101.19 211.949 103.133 211.949C105.076 211.787 106.533 212.917 106.533 214.208Z" fill="#C4E5D9"/>
<path d="M111.067 222.141C111.067 223.432 109.61 224.4 107.667 224.4C105.886 224.4 104.267 223.432 104.267 222.141C104.267 220.85 105.724 219.882 107.667 219.882C109.61 219.721 111.067 220.85 111.067 222.141Z" fill="#C4E5D9"/>
<path d="M117.867 229.5C117.867 231.119 116.167 232.333 113.9 232.333C111.822 232.333 109.933 231.119 109.933 229.5C109.933 227.881 111.633 226.667 113.9 226.667C116.167 226.667 117.867 227.881 117.867 229.5Z" fill="#C4E5D9"/>
<path d="M125.8 235.741C125.8 237.032 124.1 238 121.833 238C119.756 238 117.867 237.032 117.867 235.741C117.867 234.45 119.567 233.482 121.833 233.482C124.1 233.321 125.8 234.45 125.8 235.741Z" fill="#C4E5D9"/>
<path d="M136 240.267C136 241.562 134.543 242.533 132.6 242.533C130.819 242.533 129.2 241.562 129.2 240.267C129.2 238.971 130.657 238 132.6 238C134.543 238 136 238.971 136 240.267Z" fill="#C4E5D9"/>
<path d="M147.333 240.267C147.333 241.562 145.876 242.533 143.933 242.533C142.152 242.533 140.533 241.562 140.533 240.267C140.533 238.971 141.99 238 143.933 238C145.876 238 147.333 238.971 147.333 240.267Z" fill="#C4E5D9"/>
<path d="M158.667 238C158.667 239.295 157.21 240.267 155.267 240.267C153.486 240.267 151.867 239.295 151.867 238C151.867 236.705 153.324 235.733 155.267 235.733C157.048 235.733 158.667 236.705 158.667 238Z" fill="#C4E5D9"/>
</svg>
