<?xml version="1.0" encoding="UTF-8" standalone="no"?><svg xmlns="http://www.w3.org/2000/svg" xmlns:xlink="http://www.w3.org/1999/xlink" style="isolation:isolate" viewBox="0 0 427 374" width="427pt" height="374pt"><defs><clipPath id="_clipPath_LPsuXQNWgx2yIWKUtJuj3ETXFjUAyL2E"><rect width="427" height="374"/></clipPath></defs><g clip-path="url(#_clipPath_LPsuXQNWgx2yIWKUtJuj3ETXFjUAyL2E)"><path d=" M 334.333 332.067 C 334.333 355.289 280.786 374 214.767 374 C 148.747 374 95.2 355.122 95.2 332.067 C 95.2 308.845 148.747 290.133 214.767 290.133 C 280.786 290.133 334.333 308.845 334.333 332.067 Z " fill="rgb(158,220,242)"/><path d=" M 334.333 332.067 C 334.333 355.289 280.786 374 214.767 374 C 148.747 374 95.2 355.122 95.2 332.067 C 95.2 308.845 148.747 290.133 214.767 290.133 C 280.786 290.133 334.333 308.845 334.333 332.067 Z " fill="rgb(125,188,231)"/><path d=" M 78.229 208.533 L 74.869 221.209 C 74.869 221.209 74.069 225.786 77.909 226.667 C 82.069 226.491 81.749 222.265 81.429 221.033 L 78.229 208.533 L 78.229 208.533 Z " fill="rgb(158,220,242)"/><path d=" M 425.8 158.774 L 426.133 157.278 C 391.011 150.301 355.056 150.135 333.25 151.131 C 336.745 138.339 337.91 123.387 337.91 106.939 C 337.91 83.182 328.922 64.242 314.606 49.954 C 317.103 41.814 320.432 23.705 311.277 0.612 C 311.277 0.612 294.964 -4.538 257.844 20.216 C 243.362 16.561 227.881 14.734 212.401 14.734 C 195.422 14.734 178.277 16.893 162.13 21.213 C 123.845 -4.871 107.033 0.446 107.033 0.446 C 96.047 27.858 102.871 48.293 104.869 53.277 C 91.885 67.233 84.062 85.009 84.062 106.773 C 84.062 123.22 85.893 138.007 90.553 150.799 C 68.581 149.968 33.958 150.301 0 157.112 L 0.333 158.607 C 34.29 151.796 69.247 151.63 91.053 152.46 C 92.052 155.119 93.217 157.777 94.382 160.269 C 72.742 160.933 35.955 163.758 0.666 173.726 L 1.165 175.221 C 36.787 165.253 73.908 162.595 95.381 161.93 C 108.364 185.854 133.666 201.471 178.943 206.289 C 172.451 210.608 165.959 217.918 163.296 230.378 C 154.473 234.532 126.841 244.832 110.195 216.257 C 110.195 216.257 100.874 199.311 83.063 197.982 C 83.063 197.982 65.751 197.649 81.898 208.781 C 81.898 208.781 93.383 214.263 101.373 234.698 C 101.373 234.698 111.86 269.586 161.964 258.289 L 161.964 294.008 C 161.964 294.008 160.965 306.801 149.147 310.954 C 149.147 310.954 142.155 315.772 149.646 318.43 C 149.646 318.43 182.105 321.089 182.105 294.507 L 182.105 255.299 C 182.105 255.299 180.774 239.682 188.431 234.366 L 188.431 298.826 C 188.431 298.826 187.931 314.277 179.941 320.092 C 179.941 320.092 174.615 329.562 186.267 327.07 C 186.267 327.07 208.572 323.913 209.571 297.83 L 210.07 232.538 L 215.397 232.538 L 215.896 297.83 C 216.895 323.747 239.201 327.07 239.201 327.07 C 250.853 329.728 245.526 320.092 245.526 320.092 C 237.536 314.277 237.037 298.826 237.037 298.826 L 237.037 234.864 C 244.694 240.845 243.362 255.299 243.362 255.299 L 243.362 294.507 C 243.362 321.089 275.821 318.43 275.821 318.43 C 283.312 315.772 276.321 310.954 276.321 310.954 C 264.669 306.635 263.504 294.008 263.504 294.008 L 263.504 242.506 C 263.504 222.404 255.014 211.771 246.691 206.289 C 294.964 201.471 318.102 186.02 328.755 161.764 C 349.895 162.262 388.014 164.921 424.302 175.221 L 424.802 173.726 C 388.68 163.592 350.894 160.933 329.421 160.269 C 330.42 157.777 331.252 155.285 332.084 152.627 C 354.39 151.796 390.511 151.796 425.8 158.774 Z " fill="rgb(1,1,1)"/><path d=" M 290.656 105.761 C 300.975 115.221 307.133 126.505 307.133 138.62 C 307.133 195.706 264.526 197.2 211.933 197.2 C 159.34 197.2 116.733 189.234 116.733 138.62 C 116.733 126.505 122.725 115.22 133.044 105.927 C 150.186 90.328 179.146 98.626 211.933 98.626 C 244.721 98.626 273.514 90.162 290.656 105.761 Z " fill="rgb(245,204,179)"/><path d=" M 180.2 141.667 C 180.2 157.408 171.367 170 160.367 170 C 149.367 170 140.533 157.242 140.533 141.667 C 140.533 125.927 149.367 113.335 160.367 113.335 C 171.367 113.169 180.2 125.927 180.2 141.667 Z " fill="rgb(255,255,255)"/><path d=" M 173.4 141.667 C 173.4 152.314 167.461 160.933 160.367 160.933 C 153.108 160.933 147.333 152.314 147.333 141.667 C 147.333 131.019 153.273 122.4 160.367 122.4 C 167.461 122.4 173.4 131.019 173.4 141.667 Z " fill="rgb(175,92,81)"/><path d=" M 286.733 141.667 C 286.733 157.408 277.9 170 266.9 170 C 255.9 170 247.067 157.242 247.067 141.667 C 247.067 125.927 255.9 113.335 266.9 113.335 C 277.733 113.169 286.733 125.927 286.733 141.667 Z " fill="rgb(255,255,255)"/><path d=" M 279.933 141.667 C 279.933 152.314 273.994 160.933 266.9 160.933 C 259.641 160.933 253.867 152.314 253.867 141.667 C 253.867 131.019 259.806 122.4 266.9 122.4 C 274.159 122.4 279.933 131.019 279.933 141.667 Z " fill="rgb(175,92,81)"/><path d=" M 217.6 167.167 C 217.6 169.887 215.39 172.267 212.5 172.267 C 209.78 172.267 207.4 170.057 207.4 167.167 C 207.4 164.277 209.61 162.067 212.5 162.067 C 215.22 162.067 217.6 164.277 217.6 167.167 Z " fill="rgb(175,92,81)"/><path d=" M 223.165 184.91 C 223.491 185.738 223.002 186.565 222.188 186.896 C 221.375 187.227 220.561 186.731 220.235 185.903 C 218.933 182.262 215.677 179.945 211.934 179.945 C 208.19 179.945 204.934 182.427 203.632 185.903 C 203.307 186.731 202.493 187.227 201.679 186.896 C 200.865 186.565 200.377 185.738 200.702 184.91 C 202.33 180.11 206.888 176.8 211.934 176.8 C 216.98 176.8 221.537 180.11 223.165 184.91 Z " fill="rgb(175,92,81)"/><path d=" M 90.667 201.733 C 90.667 203.029 89.21 204 87.267 204 C 85.486 204 83.867 203.029 83.867 201.733 C 83.867 200.438 85.324 199.467 87.267 199.467 C 89.21 199.467 90.667 200.438 90.667 201.733 Z " fill="rgb(196,229,217)"/><path d=" M 100.867 207.4 C 100.867 208.695 99.167 209.667 96.9 209.667 C 94.822 209.667 92.933 208.695 92.933 207.4 C 92.933 206.105 94.633 205.133 96.9 205.133 C 99.167 205.133 100.867 206.105 100.867 207.4 Z " fill="rgb(196,229,217)"/><path d=" M 106.533 214.208 C 106.533 215.499 105.076 216.467 103.133 216.467 C 101.352 216.467 99.733 215.499 99.733 214.208 C 99.733 212.917 101.19 211.949 103.133 211.949 C 105.076 211.787 106.533 212.917 106.533 214.208 Z " fill="rgb(196,229,217)"/><path d=" M 111.067 222.141 C 111.067 223.432 109.61 224.4 107.667 224.4 C 105.886 224.4 104.267 223.432 104.267 222.141 C 104.267 220.85 105.724 219.882 107.667 219.882 C 109.61 219.721 111.067 220.85 111.067 222.141 Z " fill="rgb(196,229,217)"/><path d=" M 117.867 229.5 C 117.867 231.119 116.167 232.333 113.9 232.333 C 111.822 232.333 109.933 231.119 109.933 229.5 C 109.933 227.881 111.633 226.667 113.9 226.667 C 116.167 226.667 117.867 227.881 117.867 229.5 Z " fill="rgb(196,229,217)"/><path d=" M 125.8 235.741 C 125.8 237.032 124.1 238 121.833 238 C 119.756 238 117.867 237.032 117.867 235.741 C 117.867 234.45 119.567 233.482 121.833 233.482 C 124.1 233.321 125.8 234.45 125.8 235.741 Z " fill="rgb(196,229,217)"/><path d=" M 136 240.267 C 136 241.562 134.543 242.533 132.6 242.533 C 130.819 242.533 129.2 241.562 129.2 240.267 C 129.2 238.971 130.657 238 132.6 238 C 134.543 238 136 238.971 136 240.267 Z " fill="rgb(196,229,217)"/><path d=" M 147.333 240.267 C 147.333 241.562 145.876 242.533 143.933 242.533 C 142.152 242.533 140.533 241.562 140.533 240.267 C 140.533 238.971 141.99 238 143.933 238 C 145.876 238 147.333 238.971 147.333 240.267 Z " fill="rgb(196,229,217)"/><path d=" M 158.667 238 C 158.667 239.295 157.21 240.267 155.267 240.267 C 153.486 240.267 151.867 239.295 151.867 238 C 151.867 236.705 153.324 235.733 155.267 235.733 C 157.048 235.733 158.667 236.705 158.667 238 Z " fill="rgb(196,229,217)"/></g></svg>
