<?xml version="1.0" encoding="UTF-8" standalone="no"?><!-- Generator: Gravit.io --><svg xmlns="http://www.w3.org/2000/svg" xmlns:xlink="http://www.w3.org/1999/xlink" style="isolation:isolate" viewBox="0 0 37 41" width="37pt" height="41pt"><defs><clipPath id="_clipPath_KuyLdXnLp4UZqCl7TDxTYWYrpfsdzvK9"><rect width="37" height="41"/></clipPath></defs><g clip-path="url(#_clipPath_KuyLdXnLp4UZqCl7TDxTYWYrpfsdzvK9)"><path d=" M 6.786 0 L 21.429 0 L 21.429 2.929 L 6.786 2.929 C 6.009 2.929 5.264 3.237 4.715 3.786 C 4.166 4.336 3.857 5.08 3.857 5.857 L 3.857 35.143 C 3.857 35.92 4.166 36.665 4.715 37.214 C 5.264 37.763 6.009 38.071 6.786 38.071 L 30.214 38.071 C 30.991 38.071 31.736 37.763 32.285 37.214 C 32.835 36.665 33.143 35.92 33.143 35.143 L 33.143 14.643 L 36.072 14.643 L 36.072 35.143 C 36.072 36.696 35.455 38.186 34.356 39.285 C 33.258 40.383 31.768 41 30.214 41 L 6.786 41 C 5.232 41 3.743 40.383 2.644 39.285 C 1.546 38.186 0.929 36.696 0.929 35.143 L 0.929 5.857 C 0.929 4.304 1.546 2.814 2.644 1.716 C 3.743 0.617 5.232 0 6.786 0 Z " fill="rgb(0,0,0)"/><path d=" M 21.429 10.25 L 21.429 0 L 36.072 14.643 L 25.822 14.643 C 24.657 14.643 23.539 14.18 22.715 13.356 C 21.892 12.532 21.429 11.415 21.429 10.25 Z " fill="rgb(0,0,0)"/></g></svg>