<svg width="32" height="30" viewBox="0 0 32 30" fill="none" xmlns="http://www.w3.org/2000/svg">
<path d="M30.9999 4.63995C29.6599 1.88995 25.7999 -0.360052 21.3099 0.949948C19.1643 1.56969 17.2924 2.89873 15.9999 4.71995C14.7074 2.89873 12.8354 1.56969 10.6899 0.949948C6.18987 -0.340052 2.33987 1.88995 0.999867 4.63995C-0.880133 8.48995 -0.100133 12.8199 3.31987 17.5099C5.99987 21.1799 9.82987 24.9 15.3899 29.2199C15.5656 29.357 15.782 29.4314 16.0049 29.4314C16.2277 29.4314 16.4442 29.357 16.6199 29.2199C22.1699 24.91 26.0099 21.2199 28.6899 17.5099C32.0999 12.8199 32.8799 8.48995 30.9999 4.63995Z" fill="#3399FF"/>
</svg>
